<?xml version="1.0" encoding="UTF-8"?>
<svg width="125px" height="50px" viewBox="0 0 125 50" version="1.1" xmlns="http://www.w3.org/2000/svg" xmlns:xlink="http://www.w3.org/1999/xlink">
    <!-- Generator: Sketch 52.3 (67297) - http://www.bohemiancoding.com/sketch -->
    <title>Untitled</title>
    <desc>Created with Sketch.</desc>
    <g id="Page-1" stroke="none" stroke-width="1" fill="none" fill-rule="evenodd">
        <g id="logo" fill="#E13B0F">
            <polygon id="Path" points="0 50 0 0 32 0 32 5.54708129 6.077842 5.54708129 6.077842 21.663914 31.487219 21.663914 31.487219 27.2109953 6.077842 27.2109953 6.077842 49.999474 0 49.999474"></polygon>
            <polygon id="Path" points="41 50 41 0 73 0 73 5.54708129 47.077842 5.54708129 47.077842 21.663914 72.4877328 21.663914 72.4877328 27.2109953 47.077842 27.2109953 47.077842 44.4523927 73 44.4523927 73 49.999474 41 49.999474"></polygon>
            <polygon id="Path" points="117.504342 50 101.53787 28.7105903 85.5713982 50 78 50 97.4899729 24.3627642 79.1245328 0 86.695405 0 101.537344 20.0149381 116.304595 0 123.875467 0 105.585241 24.2880737 125 50"></polygon>
        </g>
    </g>
</svg>