<?xml version="1.0" encoding="utf-8"?>
<!-- Generator: Adobe Illustrator 16.0.0, SVG Export Plug-In . SVG Version: 6.00 Build 0)  -->
<!DOCTYPE svg PUBLIC "-//W3C//DTD SVG 1.1//EN" "http://www.w3.org/Graphics/SVG/1.1/DTD/svg11.dtd">
<svg version="1.1" id="图层_1" xmlns="http://www.w3.org/2000/svg" xmlns:xlink="http://www.w3.org/1999/xlink" x="0px" y="0px"
	 width="300.126px" height="200.482px" viewBox="0 0 300.126 200.482" enable-background="new 0 0 300.126 200.482"
	 xml:space="preserve">
<g>
	<path fill="#E13B0F" d="M27.268,123.887V28.828h62.28v10.546H39.097v30.641H88.55v10.546H39.097v43.325H27.268z"/>
	<path fill="#E13B0F" d="M105.651,123.887V28.828h62.28v10.546H117.48v30.641h49.454v10.546H117.48v32.779h50.451v10.546H105.651z"
		/>
	<path fill="#E13B0F" d="M252.442,123.887l-30.356-40.475l-30.356,40.475h-14.395l37.055-48.741l-34.917-46.318h14.394
		l28.218,38.052l28.076-38.052h14.394l-34.774,46.176l36.912,48.883H252.442z"/>
</g>
<g>
	<path fill="#333333" d="M49.736,163.136c-0.13-0.652-0.424-1.825-0.847-3.127l-4.3-14.074c-0.423-1.401-0.717-2.508-0.945-3.746
		c-0.065,0.228-0.13,0.423-0.13,0.554c-0.228,0.847-0.651,2.541-0.847,3.192l-4.268,14.074c-0.554,1.759-0.685,2.313-0.847,3.127
		h-2.509c-0.098-0.586-0.098-0.586-0.879-3.225l-5.147-17.82c-0.521-1.792-0.814-2.639-1.336-3.714h3.291
		c0.065,0.978,0.26,2.053,0.619,3.388l3.844,14.139c0.228,0.782,0.423,1.694,0.88,3.681c0.326-1.303,0.716-2.834,0.977-3.714
		l4.365-14.301c0.358-1.173,0.652-2.443,0.75-3.193h2.443c0.163,0.978,0.391,1.955,0.782,3.193l4.365,14.269
		c0.196,0.716,0.326,1.205,0.978,3.746l0.879-3.746l3.844-14.074c0.326-1.271,0.554-2.443,0.619-3.388h3.258
		c-0.489,1.108-0.75,1.89-1.271,3.714l-5.18,17.82c-0.716,2.476-0.716,2.508-0.847,3.225H49.736z"/>
	<path fill="#333333" d="M79.289,163.364c-1.043-0.163-1.922-0.228-3.649-0.228h-9.545c-1.563,0-2.476,0.032-3.583,0.098
		c0.196-1.238,0.261-2.215,0.261-3.877v-17.364c0-1.401-0.065-2.28-0.261-3.714c1.14,0.065,2.02,0.098,3.583,0.098h9.285
		c1.434,0,2.541-0.065,3.649-0.228v2.737c-1.14-0.163-2.02-0.228-3.649-0.228H65.345v8.34h8.568c1.434,0,2.411-0.065,3.648-0.228
		v2.736c-1.107-0.163-1.955-0.228-3.648-0.228h-8.568v9.578h10.327c1.499,0,2.411-0.065,3.616-0.228V163.364z"/>
	<path fill="#333333" d="M87.044,163.136c-1.433,0-2.443,0.032-3.583,0.098c0.228-1.303,0.293-2.15,0.293-4.04v-17.429
		c0-1.401-0.065-2.28-0.261-3.453c1.01,0.065,1.662,0.065,3.551,0.065h6.939c4.724,0,7.362,2.15,7.362,5.995
		c0,1.889-0.586,3.323-1.759,4.365c-0.684,0.586-1.271,0.879-2.574,1.303c1.499,0.293,2.281,0.619,3.16,1.368
		c1.336,1.14,2.02,2.802,2.02,4.887c0,4.365-2.867,6.841-7.852,6.841H87.044z M93.951,148.997c3.03,0,4.821-1.596,4.821-4.333
		c0-2.704-1.629-4.072-4.854-4.072h-7.656v8.405H93.951z M86.263,160.92h7.851c3.551,0,5.44-1.694,5.44-4.822
		c0-3.225-1.889-4.886-5.505-4.886h-7.786V160.92z"/>
	<path fill="#333333" d="M122.654,140.983c1.727-1.922,2.476-2.997,3.681-5.278l2.085,0.782c-1.271,1.889-2.508,3.486-3.518,4.496
		h6.678c1.466,0,2.378-0.065,3.258-0.195v2.215c-0.945-0.13-1.857-0.196-3.258-0.196h-22.218c-1.368,0-2.248,0.065-3.258,0.196
		v-2.215c1.173,0.163,1.662,0.195,3.258,0.195h6.385c-1.042-1.727-1.759-2.639-3.486-4.528l1.955-0.782
		c2.313,2.802,2.508,3.062,3.779,5.31H122.654z M110.373,158.184v3.91c0,1.727,0.065,2.639,0.196,3.453h-2.378
		c0.13-0.912,0.163-1.89,0.163-3.519v-13.683c0-1.596-0.033-2.15-0.098-2.899c1.075,0.098,1.857,0.13,3.16,0.13h5.115
		c1.792,0,2.28-0.032,2.965-0.13c-0.065,0.75-0.098,1.597-0.098,3.454v13.812c0,1.987-0.586,2.509-2.834,2.509
		c-0.619,0-1.401-0.033-2.606-0.13c-0.163-0.945-0.228-1.206-0.521-2.02c1.238,0.228,2.052,0.326,2.834,0.326
		c0.945,0,1.141-0.13,1.141-0.847v-4.366H110.373z M117.41,147.433h-7.037v3.583h7.037V147.433z M117.41,152.841h-7.037v3.518h7.037
		V152.841z M125.879,145.837c-0.13,0.782-0.163,1.303-0.163,3.062v6.613c0,2.476,0,2.899,0.13,3.681h-2.281
		c0.098-0.814,0.13-1.368,0.13-3.649v-6.646c0-1.662-0.032-2.15-0.163-3.062H125.879z M132.884,144.859
		c-0.163,0.847-0.195,1.727-0.195,3.519v14.106c0,2.346-0.652,2.867-3.486,2.867c-1.01,0-2.085-0.065-3.682-0.196
		c-0.13-0.814-0.26-1.335-0.619-2.183c1.792,0.293,3.062,0.423,4.235,0.423c1.271,0,1.466-0.13,1.466-0.977v-14.106
		c0-1.955-0.033-2.541-0.196-3.454H132.884z"/>
	<path fill="#333333" d="M138.133,160.464c1.042-0.065,2.118-0.326,5.31-1.238c1.173-5.082,1.564-7.134,2.02-10.979
		c0.163-1.401,0.228-2.313,0.228-3.127l2.15,0.521c-0.098,0.423-0.228,1.173-0.717,4.496c-0.488,3.062-0.749,4.268-1.727,8.47
		c1.042-0.358,1.531-0.554,2.997-1.108v1.955c-2.834,1.075-5.994,2.15-8.47,2.834c-0.423,0.13-0.814,0.261-1.172,0.391
		L138.133,160.464z M146.343,141.895c1.042,0,1.629-0.033,2.183-0.13v2.052c-0.456-0.098-1.238-0.13-2.183-0.13h-5.505
		c-0.88,0-1.597,0.032-2.248,0.13v-2.052c0.521,0.098,1.14,0.13,2.183,0.13h2.802c-0.717-1.629-0.75-1.694-2.378-4.268l1.499-1.042
		c1.368,2.02,1.792,2.769,2.671,4.659l-1.075,0.651H146.343z M141.261,145.381c0.847,3.909,1.206,6.548,1.563,11.435l-1.922,0.489
		c-0.261-4.463-0.75-8.177-1.499-11.532L141.261,145.381z M151.881,148.899c-1.661,0-2.378,0.032-3.29,0.13v-2.085
		c0.782,0.13,1.499,0.163,3.29,0.163h12.412c1.629,0,2.606-0.065,3.355-0.195v2.117c-0.814-0.098-1.824-0.13-3.355-0.13h-5.31
		c-0.619,1.4-0.945,1.987-1.727,3.453h6.255c1.401,0,2.346-0.033,3.323-0.163c-0.098,0.75-0.13,1.727-0.13,3.225v7.981
		c0,1.564-0.586,2.053-2.443,2.053c-0.423,0-1.042,0-1.759-0.033c-0.098-0.75-0.196-1.206-0.489-1.987
		c0.814,0.098,1.531,0.163,2.117,0.163c0.521,0,0.619-0.098,0.619-0.652v-8.894h-3.29v7.493c0,1.336,0.032,2.248,0.13,3.095h-2.183
		c0.13-0.847,0.163-1.694,0.163-3.127v-7.46h-3.062v7.493c0,1.499,0.033,2.346,0.163,3.095h-2.215
		c0.13-0.88,0.163-1.629,0.163-3.127v-7.46h-3.03v8.209c0,1.825,0.032,2.769,0.163,3.519h-2.28c0.13-0.814,0.163-1.792,0.163-3.551
		v-6.874c0-1.238-0.033-2.378-0.098-3.127c1.303,0.098,2.215,0.13,3.356,0.13h2.313c0.716-1.238,1.238-2.313,1.661-3.453H151.881z
		 M156.931,138.637c0-1.075-0.065-1.727-0.196-2.411h2.378c-0.13,0.619-0.196,1.303-0.196,2.411v3.942h5.115v-2.736
		c0-0.912-0.032-1.564-0.13-2.215h2.281c-0.13,0.554-0.163,1.271-0.163,2.28v2.509c0,0.847,0.033,1.368,0.098,1.922
		c-0.26-0.033-0.26-0.033-1.01-0.033c-0.261-0.032-0.945-0.032-1.434-0.032h-11.109c-1.335,0-1.629,0-2.378,0.065
		c0.033-0.684,0.065-1.271,0.065-1.857v-2.476c0-0.847-0.065-1.629-0.163-2.378h2.28c-0.098,0.521-0.13,1.238-0.13,2.313v2.639
		h4.691V138.637z"/>
	<path fill="#333333" d="M177.622,139.484c-0.391,2.932-1.042,5.245-2.248,8.274h4.072c1.075,0,1.433-0.032,2.02-0.098
		c-0.065,0.717-0.098,1.206-0.098,2.606v10.066c0,1.238,0.033,1.89,0.13,2.736h-2.052v-1.629h-4.04v3.453h-2.15
		c0.13-0.879,0.195-1.694,0.195-3.16v-7.232c0-1.173,0.033-2.183,0.098-3.648c-0.619,1.499-1.271,2.508-2.443,3.974
		c-0.358-0.912-0.717-1.499-1.173-1.955c1.922-2.15,3.323-4.691,4.496-8.274c0.586-1.759,0.879-3.062,1.107-5.115h-1.433
		c-1.238,0-1.922,0.033-2.802,0.195v-2.215c0.847,0.13,1.596,0.196,2.932,0.196h5.31c1.271,0,1.922-0.033,2.736-0.196v2.15
		c-0.847-0.098-1.563-0.13-2.639-0.13H177.622z M175.406,159.683h4.04v-10.197h-4.04V159.683z M196.452,148.508h1.042
		c1.531,0,2.378-0.033,3.258-0.195v2.313c-0.88-0.13-1.792-0.196-3.258-0.196h-1.042v11.695c0,1.238,0.065,2.281,0.228,3.486h-2.509
		c0.163-1.238,0.228-2.183,0.228-3.486V150.43h-5.375c-0.293,7.135-1.727,11.207-5.44,15.507c-0.586-0.652-1.108-1.075-1.89-1.466
		c3.421-3.225,4.984-7.428,5.245-14.041h-0.912c-1.434,0-2.248,0.033-3.225,0.196v-2.281c0.879,0.13,1.727,0.163,3.225,0.163h0.977
		c0-0.261,0-0.326,0-0.814v-8.209h-0.293c-1.368,0-2.215,0.065-3.16,0.195v-2.248c0.75,0.13,1.759,0.195,3.291,0.195h10.294
		c1.433,0,2.346-0.065,3.258-0.195v2.248c-0.912-0.163-1.759-0.195-3.16-0.195h-0.782V148.508z M189.089,139.484v7.917
		c0,0.554,0,0.651,0,1.107h5.31v-9.024H189.089z"/>
	<path fill="#333333" d="M228.871,149.779c-0.228,0.326-0.391,0.619-0.945,1.759c-1.401,2.802-3.127,5.277-5.147,7.33
		c3.062,2.183,6.092,3.551,10.392,4.691c-0.684,0.75-0.945,1.14-1.368,2.052c-4.137-1.401-7.558-3.127-10.555-5.375
		c-2.508,2.02-5.245,3.355-11.011,5.375c-0.358-0.847-0.619-1.238-1.303-1.987c2.899-0.782,5.701-1.824,7.753-2.899
		c1.01-0.521,1.792-1.01,2.899-1.856c-2.28-2.02-4.104-4.3-5.44-6.907c-0.684,1.857-1.629,3.747-2.932,5.734
		c-1.792,2.801-3.649,4.886-6.353,7.102c-0.423-0.749-0.847-1.238-1.596-1.857c2.02-1.368,2.997-2.248,4.594-4.137
		c3.062-3.616,4.886-7.818,6.027-13.878h-4.854c-1.759,0.098-2.834,0.163-3.192,0.163c1.466-3.486,2.02-5.311,2.541-8.536
		l2.248,0.326c-0.554,1.987-1.141,3.844-1.987,6.125h5.571c0.26-1.792,0.521-4.822,0.521-5.832c0-0.293,0-0.521-0.065-0.978
		l2.508,0.196c-0.163,0.586-0.163,0.586-0.326,1.889c-0.195,1.857-0.293,2.834-0.554,4.724h12.868c1.466,0,2.508-0.065,3.42-0.196
		v2.346c-0.749-0.13-1.727-0.195-3.42-0.195l-13.194-0.033c-0.229,1.434-0.391,2.183-0.782,3.681h9.61
		c1.434,0,2.215-0.033,2.899-0.163L228.871,149.779z M215.514,150.463c1.238,2.704,3.03,4.984,5.604,7.135
		c2.085-1.922,3.583-4.105,4.952-7.135H215.514z M228.154,142.221c-1.563-2.02-2.802-3.16-4.854-4.528l1.466-1.238
		c2.052,1.401,2.997,2.248,4.952,4.333L228.154,142.221z"/>
	<path fill="#333333" d="M250.116,148.736c1.499,0,2.378-0.033,3.03-0.163v2.183c-0.652-0.098-1.596-0.163-2.965-0.163h-10.913
		c-1.499,0-2.313,0.033-3.095,0.163v-2.183c0.75,0.13,1.629,0.163,3.127,0.163h7.037c1.238-2.411,1.727-3.779,2.345-6.32l1.89,0.814
		c-0.912,2.671-1.434,3.942-2.313,5.505H250.116z M249.692,139.875c1.466,0,2.28-0.032,3.03-0.163v2.15
		c-0.652-0.13-1.564-0.163-2.965-0.163h-9.773c-1.335,0-2.183,0.032-2.932,0.163v-2.15c0.782,0.13,1.531,0.163,3.03,0.163h3.909
		c-0.456-1.303-0.782-2.085-1.434-3.355l1.825-0.651c0.782,1.466,1.238,2.606,1.661,4.007H249.692z M240.44,165.579h-2.183
		c0.098-0.75,0.13-1.466,0.13-2.932v-6.613c0-1.499-0.032-2.052-0.098-2.736c0.684,0.065,1.434,0.098,2.574,0.098h7.721
		c1.206,0,1.824-0.033,2.378-0.098c-0.098,0.651-0.098,1.042-0.098,2.704v7.004c0,1.205,0.032,1.792,0.13,2.574h-2.183v-2.02h-8.372
		V165.579z M240.994,142.318c1.042,1.955,1.499,3.127,2.183,5.408l-1.89,0.651c-0.521-2.02-1.042-3.323-2.118-5.408L240.994,142.318
		z M240.44,161.735h8.405v-6.516h-8.405V161.735z M265.59,138.507c-0.228,0.391-0.26,0.456-1.335,2.899
		c-0.879,1.987-2.085,4.3-3.355,6.451c2.085,2.15,2.899,3.29,3.681,5.114c0.652,1.466,0.978,3.03,0.978,4.528
		c0,1.825-0.554,3.062-1.662,3.682c-0.619,0.326-1.531,0.488-2.899,0.488c-0.978,0-1.694-0.032-2.736-0.13
		c-0.033-0.912-0.163-1.466-0.424-2.183c1.303,0.228,2.118,0.326,3.127,0.326c1.89,0,2.509-0.554,2.509-2.313
		c0-1.499-0.358-2.932-1.075-4.43c-0.847-1.759-1.694-2.802-3.877-4.724c1.89-3.095,3.193-5.798,4.398-9.089h-6.483v23.163
		c0,1.662,0.065,2.671,0.228,3.616h-2.476c0.13-0.945,0.195-1.987,0.195-3.583v-22.153c0-0.978-0.033-1.89-0.13-2.997
		c0.847,0.065,1.466,0.098,2.606,0.098h5.245c1.238,0,1.922-0.033,2.509-0.13L265.59,138.507z"/>
</g>
</svg>
