<?xml version="1.0" encoding="UTF-8"?>
<svg width="240px" height="96px" viewBox="0 0 240 96" version="1.1" xmlns="http://www.w3.org/2000/svg" xmlns:xlink="http://www.w3.org/1999/xlink">
    <!-- Generator: Sketch 52.3 (67297) - http://www.bohemiancoding.com/sketch -->
    <title>Untitled</title>
    <desc>Created with Sketch.</desc>
    <g id="Page-1" stroke="none" stroke-width="1" fill="none" fill-rule="evenodd">
        <g id="logo" fill="#E13B0F">
            <g id="Group">
                <polygon id="Path" points="0.268 95.887 0.268 0.828 62.548 0.828 62.548 11.374 12.097 11.374 12.097 42.015 61.55 42.015 61.55 52.561 12.097 52.561 12.097 95.886 0.268 95.886"></polygon>
                <polygon id="Path" points="78.651 95.887 78.651 0.828 140.931 0.828 140.931 11.374 90.48 11.374 90.48 42.015 139.934 42.015 139.934 52.561 90.48 52.561 90.48 85.34 140.931 85.34 140.931 95.886 78.651 95.886"></polygon>
                <polygon id="Path" points="225.442 95.887 195.086 55.412 164.73 95.887 150.335 95.887 187.39 47.146 152.473 0.828 166.867 0.828 195.085 38.88 223.161 0.828 237.555 0.828 202.781 47.004 239.693 95.887"></polygon>
            </g>
        </g>
    </g>
</svg>